<?xml version="1.0" encoding="utf-8"?>
<svg version="1.1" xmlns:xlink="http://www.w3.org/1999/xlink" width="30px" height="30px" xmlns="http://www.w3.org/2000/svg">
  <defs>
    <pattern id="BGPattern" patternUnits="userSpaceOnUse" alignment="0 0" imageRepeat="None" />
    <mask fill="white" id="Clip17">
      <path d="M 12.219460227272727 29.147919010123736  C 12.837357954545455 28.80483689538808  13.146306818181818 28.509561304836897  13.146306818181818 28.26209223847019  C 13.146306818181818 28.13835770528684  13.053977272727273 27.812148481439817  12.869318181818182 27.283464566929133  C 12.684659090909092 26.75478065241845  12.464488636363637 26.152980877390327  12.208806818181818 25.478065241844767  C 11.953125 24.80314960629921  11.811079545454547 24.41507311586052  11.782670454545455 24.313835770528684  C 11.76846590909091 24.268841394825643  11.732954545454547 24.119797525309334  11.676136363636363 23.86670416197975  C 11.619318181818182 23.613610798650168  11.558948863636363 23.4111361079865  11.49502840909091 23.259280089988753  C 11.431107954545455 23.107424071991  11.335227272727273 22.98650168728909  11.207386363636363 22.896512935883013  C 10.994318181818182 22.739032620922387  10.632102272727273 22.66029246344207  10.120738636363637 22.66029246344207  C 9.794034090909092 22.66029246344207  9.296875000000002 22.691226096737907  8.629261363636363 22.753093363329583  C 7.961647727272727 22.814960629921263  7.457386363636363 22.845894263217097  7.1164772727272725 22.845894263217097  C 6.633522727272728 22.845894263217097  6.299715909090909 22.78402699662542  6.115056818181818 22.66029246344207  C 6.029829545454545 22.604049493813278  5.951704545454547 22.51687289088864  5.880681818181818 22.398762654668165  C 5.809659090909091 22.280652418447694  5.756392045454546 22.1681664791901  5.720880681818182 22.06130483689539  C 5.685369318181819 21.954443194600675  5.639204545454546 21.819460067491566  5.582386363636363 21.656355455568054  C 5.5255681818181825 21.493250843644542  5.490056818181818 21.38920134983127  5.4758522727272725 21.344206974128234  C 4.950284090909091 19.904386951631043  4.6875 18.470191226096734  4.6875 17.04161979752531  C 4.6875 15.613048368953882  4.950284090909091 14.178852643419573  5.4758522727272725 12.739032620922385  C 5.490056818181818 12.694038245219346  5.5255681818181825 12.589988751406073  5.582386363636363 12.426884139482564  C 5.639204545454546 12.263779527559054  5.685369318181819 12.128796400449943  5.720880681818182 12.021934758155231  C 5.756392045454546 11.915073115860515  5.809659090909091 11.802587176602925  5.880681818181818 11.684476940382453  C 5.951704545454547 11.56636670416198  6.029829545454545 11.479190101237343  6.115056818181818 11.422947131608549  C 6.299715909090909 11.299212598425196  6.633522727272728 11.23734533183352  7.1164772727272725 11.23734533183352  C 7.457386363636363 11.23734533183352  7.961647727272727 11.268278965129358  8.629261363636363 11.330146231721033  C 9.296875000000002 11.392013498312709  9.794034090909092 11.422947131608549  10.120738636363637 11.422947131608549  C 10.632102272727273 11.422947131608549  10.994318181818182 11.344206974128232  11.207386363636363 11.186726659167604  C 11.335227272727273 11.096737907761527  11.431107954545455 10.975815523059616  11.49502840909091 10.823959505061868  C 11.558948863636363 10.672103487064119  11.619318181818182 10.469628796400452  11.676136363636363 10.216535433070865  C 11.732954545454547 9.963442069741282  11.76846590909091 9.814398200224968  11.782670454545455 9.769403824521936  C 11.811079545454547 9.668166479190102  11.953125 9.280089988751408  12.208806818181818 8.605174353205848  C 12.464488636363637 7.9302587176602914  12.684659090909092 7.32845894263217  12.869318181818182 6.799775028121484  C 13.053977272727273 6.271091113610795  13.146306818181818 5.944881889763777  13.146306818181818 5.821147356580426  C 13.146306818181818 5.573678290213722  12.837357954545455 5.278402699662541  12.219460227272727 4.935320584926885  C 11.6015625 4.592238470191225  11.06534090909091 4.353205849268841  10.610795454545455 4.21822272215973  C 10.326704545454547 4.128233970753653  10.007102272727272 4.083239595050619  9.651988636363637 4.083239595050619  C 9.169034090909092 4.083239595050619  8.473011363636365 4.184476940382453  7.563920454545455 4.386951631046117  C 6.754261363636363 4.578177727784025  6.068892045454547 4.805961754780652  5.5078125 5.0703037120359955  C 4.946732954545455 5.334645669291334  4.442471590909092 5.705849268841393  3.995028409090909 6.183914510686163  C 3.5475852272727275 6.6619797525309306  3.220880681818182 7.055680539932506  3.0149147727272725 7.365016872890889  C 2.8089488636363638 7.674353205849269  2.485795454545455 8.205849268841394  2.0454545454545454 8.959505061867269  C 1.9602272727272727 9.094488188976378  1.8963068181818183 9.201349831271092  1.8536931818181819 9.280089988751408  C 1.1576704545454546 10.483689538807647  0.6747159090909092 11.698537682789649  0.40482954545454547 12.924634420697412  C 0.1349431818181818 14.150731158605174  0 15.523059617547808  0 17.04161979752531  C 0 18.560179977502813  0.1349431818181818 19.932508436445442  0.40482954545454547 21.158605174353205  C 0.6747159090909092 22.384701912260965  1.1576704545454546 23.599550056242972  1.8536931818181819 24.80314960629921  C 2.6491477272727275 26.17547806524184  3.2386363636363638 27.080989876265466  3.622159090909091 27.51968503937008  C 4.517045454545455 28.543307086614174  5.788352272727273 29.257592800899886  7.436079545454545 29.66254218222722  L 7.563920454545455 29.696287964004497  C 8.473011363636365 29.898762654668165  9.169034090909092 30  9.651988636363637 30  C 10.007102272727272 30  10.326704545454547 29.955005624296962  10.610795454545455 29.86501687289089  C 11.06534090909091 29.73003374578178  11.6015625 29.49100112485939  12.219460227272727 29.147919010123736  Z M 17.492897727272727 12.536557930258718  C 17.194602272727273 12.750281214848142  16.875 12.857142857142858  16.53409090909091 12.857142857142858  C 16.16477272727273 12.857142857142858  15.845170454545455 12.750281214848142  15.57528409090909 12.536557930258718  C 15.30539772727273 12.32283464566929  15.170454545454547 12.066929133858265  15.170454545454547 11.768841394825646  C 15.170454545454547 11.470753655793025  15.30539772727273 11.214848143982  15.57528409090909 11.001124859392576  C 16.10085227272727 10.584926884139481  16.363636363636363 10.078740157480315  16.363636363636363 9.482564679415072  C 16.363636363636363 8.897637795275589  16.10085227272727 8.38582677165354  15.57528409090909 7.947131608548933  C 15.30539772727273 7.733408323959505  15.170454545454547 7.480314960629919  15.170454545454547 7.187851518560181  C 15.170454545454547 6.895388076490436  15.30539772727273 6.642294713160854  15.57528409090909 6.428571428571429  C 15.845170454545455 6.214848143982001  16.16477272727273 6.107986501687289  16.53409090909091 6.107986501687289  C 16.903409090909093 6.107986501687289  17.223011363636363 6.214848143982001  17.492897727272727 6.428571428571429  C 18.558238636363637 7.272215973003373  19.09090909090909 8.29021372328459  19.09090909090909 9.482564679415072  C 19.09090909090909 10.674915635545554  18.558238636363637 11.69291338582677  17.492897727272727 12.536557930258718  Z M 21.34943181818182 15.590551181102361  C 21.093750000000004 15.804274465691785  20.774147727272727 15.9111361079865  20.390625 15.9111361079865  C 20.007102272727273 15.9111361079865  19.687500000000004 15.804274465691785  19.43181818181818 15.590551181102361  C 19.16193181818182 15.376827896512937  19.026988636363637 15.12373453318335  19.026988636363637 14.83127109111361  C 19.026988636363637 14.538807649043868  19.16193181818182 14.285714285714285  19.43181818181818 14.07199100112486  C 21.022727272727273 12.789651293588301  21.81818181818182 11.259842519685037  21.81818181818182 9.482564679415072  C 21.81818181818182 7.705286839145104  21.022727272727273 6.175478065241846  19.43181818181818 4.893138357705286  C 19.16193181818182 4.679415073115859  19.026988636363637 4.426321709786276  19.026988636363637 4.133858267716535  C 19.026988636363637 3.8413948256467902  19.16193181818182 3.588301462317207  19.43181818181818 3.374578177727783  C 19.701704545454547 3.160854893138355  20.02130681818182 3.053993250843643  20.390625 3.053993250843643  C 20.759943181818183 3.053993250843643  21.079545454545453 3.160854893138355  21.34943181818182 3.374578177727783  C 23.480113636363637 5.061867266591678  24.545454545454547 7.097862767154104  24.545454545454547 9.482564679415072  C 24.545454545454547 11.86726659167604  23.480113636363637 13.903262092238469  21.34943181818182 15.590551181102361  Z M 25.20596590909091 18.644544431946006  C 24.95028409090909 18.85826771653543  24.63068181818182 18.965129358830144  24.24715909090909 18.965129358830144  C 23.863636363636363 18.965129358830144  23.54403409090909 18.85826771653543  23.288352272727273 18.644544431946006  C 23.018465909090914 18.43082114735658  22.883522727272727 18.17772778402699  22.883522727272727 17.885264341957257  C 22.883522727272727 17.592800899887514  23.018465909090914 17.33970753655793  23.288352272727273 17.125984251968504  C 24.566761363636363 16.102362204724407  25.550426136363637 14.932508436445444  26.23934659090909 13.61642294713161  C 26.928267045454547 12.300337457817774  27.272727272727273 10.922384701912259  27.272727272727273 9.482564679415072  C 27.272727272727273 8.042744656917883  26.928267045454547 6.664791901012373  26.23934659090909 5.348706411698537  C 25.550426136363637 4.032620922384701  24.566761363636363 2.862767154105735  23.288352272727273 1.8391451068616438  C 23.018465909090914 1.625421822272216  22.883522727272727 1.37232845894263  22.883522727272727 1.0798650168728918  C 22.883522727272727 0.7874015748031471  23.018465909090914 0.5343082114735642  23.288352272727273 0.32058492688413986  C 23.558238636363637 0.10686164229471218  23.87784090909091 0  24.24715909090909 0  C 24.616477272727277 0  24.936079545454547 0.10686164229471218  25.20596590909091 0.32058492688413986  C 26.754261363636363 1.546681664791899  27.940340909090914 2.9471316085489274  28.764204545454547 4.521934758155232  C 29.588068181818183 6.096737907761529  30 7.750281214848144  30 9.482564679415072  C 30 11.214848143982  29.588068181818183 12.868391451068614  28.764204545454547 14.443194600674916  C 27.940340909090914 16.017997750281214  26.754261363636363 17.418447694038242  25.20596590909091 18.644544431946006  Z " fill-rule="evenodd" />
    </mask>
  </defs>
  <g transform="matrix(1 0 0 1 -81 -1112 )">
    <path d="M 12.219460227272727 29.147919010123736  C 12.837357954545455 28.80483689538808  13.146306818181818 28.509561304836897  13.146306818181818 28.26209223847019  C 13.146306818181818 28.13835770528684  13.053977272727273 27.812148481439817  12.869318181818182 27.283464566929133  C 12.684659090909092 26.75478065241845  12.464488636363637 26.152980877390327  12.208806818181818 25.478065241844767  C 11.953125 24.80314960629921  11.811079545454547 24.41507311586052  11.782670454545455 24.313835770528684  C 11.76846590909091 24.268841394825643  11.732954545454547 24.119797525309334  11.676136363636363 23.86670416197975  C 11.619318181818182 23.613610798650168  11.558948863636363 23.4111361079865  11.49502840909091 23.259280089988753  C 11.431107954545455 23.107424071991  11.335227272727273 22.98650168728909  11.207386363636363 22.896512935883013  C 10.994318181818182 22.739032620922387  10.632102272727273 22.66029246344207  10.120738636363637 22.66029246344207  C 9.794034090909092 22.66029246344207  9.296875000000002 22.691226096737907  8.629261363636363 22.753093363329583  C 7.961647727272727 22.814960629921263  7.457386363636363 22.845894263217097  7.1164772727272725 22.845894263217097  C 6.633522727272728 22.845894263217097  6.299715909090909 22.78402699662542  6.115056818181818 22.66029246344207  C 6.029829545454545 22.604049493813278  5.951704545454547 22.51687289088864  5.880681818181818 22.398762654668165  C 5.809659090909091 22.280652418447694  5.756392045454546 22.1681664791901  5.720880681818182 22.06130483689539  C 5.685369318181819 21.954443194600675  5.639204545454546 21.819460067491566  5.582386363636363 21.656355455568054  C 5.5255681818181825 21.493250843644542  5.490056818181818 21.38920134983127  5.4758522727272725 21.344206974128234  C 4.950284090909091 19.904386951631043  4.6875 18.470191226096734  4.6875 17.04161979752531  C 4.6875 15.613048368953882  4.950284090909091 14.178852643419573  5.4758522727272725 12.739032620922385  C 5.490056818181818 12.694038245219346  5.5255681818181825 12.589988751406073  5.582386363636363 12.426884139482564  C 5.639204545454546 12.263779527559054  5.685369318181819 12.128796400449943  5.720880681818182 12.021934758155231  C 5.756392045454546 11.915073115860515  5.809659090909091 11.802587176602925  5.880681818181818 11.684476940382453  C 5.951704545454547 11.56636670416198  6.029829545454545 11.479190101237343  6.115056818181818 11.422947131608549  C 6.299715909090909 11.299212598425196  6.633522727272728 11.23734533183352  7.1164772727272725 11.23734533183352  C 7.457386363636363 11.23734533183352  7.961647727272727 11.268278965129358  8.629261363636363 11.330146231721033  C 9.296875000000002 11.392013498312709  9.794034090909092 11.422947131608549  10.120738636363637 11.422947131608549  C 10.632102272727273 11.422947131608549  10.994318181818182 11.344206974128232  11.207386363636363 11.186726659167604  C 11.335227272727273 11.096737907761527  11.431107954545455 10.975815523059616  11.49502840909091 10.823959505061868  C 11.558948863636363 10.672103487064119  11.619318181818182 10.469628796400452  11.676136363636363 10.216535433070865  C 11.732954545454547 9.963442069741282  11.76846590909091 9.814398200224968  11.782670454545455 9.769403824521936  C 11.811079545454547 9.668166479190102  11.953125 9.280089988751408  12.208806818181818 8.605174353205848  C 12.464488636363637 7.9302587176602914  12.684659090909092 7.32845894263217  12.869318181818182 6.799775028121484  C 13.053977272727273 6.271091113610795  13.146306818181818 5.944881889763777  13.146306818181818 5.821147356580426  C 13.146306818181818 5.573678290213722  12.837357954545455 5.278402699662541  12.219460227272727 4.935320584926885  C 11.6015625 4.592238470191225  11.06534090909091 4.353205849268841  10.610795454545455 4.21822272215973  C 10.326704545454547 4.128233970753653  10.007102272727272 4.083239595050619  9.651988636363637 4.083239595050619  C 9.169034090909092 4.083239595050619  8.473011363636365 4.184476940382453  7.563920454545455 4.386951631046117  C 6.754261363636363 4.578177727784025  6.068892045454547 4.805961754780652  5.5078125 5.0703037120359955  C 4.946732954545455 5.334645669291334  4.442471590909092 5.705849268841393  3.995028409090909 6.183914510686163  C 3.5475852272727275 6.6619797525309306  3.220880681818182 7.055680539932506  3.0149147727272725 7.365016872890889  C 2.8089488636363638 7.674353205849269  2.485795454545455 8.205849268841394  2.0454545454545454 8.959505061867269  C 1.9602272727272727 9.094488188976378  1.8963068181818183 9.201349831271092  1.8536931818181819 9.280089988751408  C 1.1576704545454546 10.483689538807647  0.6747159090909092 11.698537682789649  0.40482954545454547 12.924634420697412  C 0.1349431818181818 14.150731158605174  0 15.523059617547808  0 17.04161979752531  C 0 18.560179977502813  0.1349431818181818 19.932508436445442  0.40482954545454547 21.158605174353205  C 0.6747159090909092 22.384701912260965  1.1576704545454546 23.599550056242972  1.8536931818181819 24.80314960629921  C 2.6491477272727275 26.17547806524184  3.2386363636363638 27.080989876265466  3.622159090909091 27.51968503937008  C 4.517045454545455 28.543307086614174  5.788352272727273 29.257592800899886  7.436079545454545 29.66254218222722  L 7.563920454545455 29.696287964004497  C 8.473011363636365 29.898762654668165  9.169034090909092 30  9.651988636363637 30  C 10.007102272727272 30  10.326704545454547 29.955005624296962  10.610795454545455 29.86501687289089  C 11.06534090909091 29.73003374578178  11.6015625 29.49100112485939  12.219460227272727 29.147919010123736  Z M 17.492897727272727 12.536557930258718  C 17.194602272727273 12.750281214848142  16.875 12.857142857142858  16.53409090909091 12.857142857142858  C 16.16477272727273 12.857142857142858  15.845170454545455 12.750281214848142  15.57528409090909 12.536557930258718  C 15.30539772727273 12.32283464566929  15.170454545454547 12.066929133858265  15.170454545454547 11.768841394825646  C 15.170454545454547 11.470753655793025  15.30539772727273 11.214848143982  15.57528409090909 11.001124859392576  C 16.10085227272727 10.584926884139481  16.363636363636363 10.078740157480315  16.363636363636363 9.482564679415072  C 16.363636363636363 8.897637795275589  16.10085227272727 8.38582677165354  15.57528409090909 7.947131608548933  C 15.30539772727273 7.733408323959505  15.170454545454547 7.480314960629919  15.170454545454547 7.187851518560181  C 15.170454545454547 6.895388076490436  15.30539772727273 6.642294713160854  15.57528409090909 6.428571428571429  C 15.845170454545455 6.214848143982001  16.16477272727273 6.107986501687289  16.53409090909091 6.107986501687289  C 16.903409090909093 6.107986501687289  17.223011363636363 6.214848143982001  17.492897727272727 6.428571428571429  C 18.558238636363637 7.272215973003373  19.09090909090909 8.29021372328459  19.09090909090909 9.482564679415072  C 19.09090909090909 10.674915635545554  18.558238636363637 11.69291338582677  17.492897727272727 12.536557930258718  Z M 21.34943181818182 15.590551181102361  C 21.093750000000004 15.804274465691785  20.774147727272727 15.9111361079865  20.390625 15.9111361079865  C 20.007102272727273 15.9111361079865  19.687500000000004 15.804274465691785  19.43181818181818 15.590551181102361  C 19.16193181818182 15.376827896512937  19.026988636363637 15.12373453318335  19.026988636363637 14.83127109111361  C 19.026988636363637 14.538807649043868  19.16193181818182 14.285714285714285  19.43181818181818 14.07199100112486  C 21.022727272727273 12.789651293588301  21.81818181818182 11.259842519685037  21.81818181818182 9.482564679415072  C 21.81818181818182 7.705286839145104  21.022727272727273 6.175478065241846  19.43181818181818 4.893138357705286  C 19.16193181818182 4.679415073115859  19.026988636363637 4.426321709786276  19.026988636363637 4.133858267716535  C 19.026988636363637 3.8413948256467902  19.16193181818182 3.588301462317207  19.43181818181818 3.374578177727783  C 19.701704545454547 3.160854893138355  20.02130681818182 3.053993250843643  20.390625 3.053993250843643  C 20.759943181818183 3.053993250843643  21.079545454545453 3.160854893138355  21.34943181818182 3.374578177727783  C 23.480113636363637 5.061867266591678  24.545454545454547 7.097862767154104  24.545454545454547 9.482564679415072  C 24.545454545454547 11.86726659167604  23.480113636363637 13.903262092238469  21.34943181818182 15.590551181102361  Z M 25.20596590909091 18.644544431946006  C 24.95028409090909 18.85826771653543  24.63068181818182 18.965129358830144  24.24715909090909 18.965129358830144  C 23.863636363636363 18.965129358830144  23.54403409090909 18.85826771653543  23.288352272727273 18.644544431946006  C 23.018465909090914 18.43082114735658  22.883522727272727 18.17772778402699  22.883522727272727 17.885264341957257  C 22.883522727272727 17.592800899887514  23.018465909090914 17.33970753655793  23.288352272727273 17.125984251968504  C 24.566761363636363 16.102362204724407  25.550426136363637 14.932508436445444  26.23934659090909 13.61642294713161  C 26.928267045454547 12.300337457817774  27.272727272727273 10.922384701912259  27.272727272727273 9.482564679415072  C 27.272727272727273 8.042744656917883  26.928267045454547 6.664791901012373  26.23934659090909 5.348706411698537  C 25.550426136363637 4.032620922384701  24.566761363636363 2.862767154105735  23.288352272727273 1.8391451068616438  C 23.018465909090914 1.625421822272216  22.883522727272727 1.37232845894263  22.883522727272727 1.0798650168728918  C 22.883522727272727 0.7874015748031471  23.018465909090914 0.5343082114735642  23.288352272727273 0.32058492688413986  C 23.558238636363637 0.10686164229471218  23.87784090909091 0  24.24715909090909 0  C 24.616477272727277 0  24.936079545454547 0.10686164229471218  25.20596590909091 0.32058492688413986  C 26.754261363636363 1.546681664791899  27.940340909090914 2.9471316085489274  28.764204545454547 4.521934758155232  C 29.588068181818183 6.096737907761529  30 7.750281214848144  30 9.482564679415072  C 30 11.214848143982  29.588068181818183 12.868391451068614  28.764204545454547 14.443194600674916  C 27.940340909090914 16.017997750281214  26.754261363636363 17.418447694038242  25.20596590909091 18.644544431946006  Z " fill-rule="nonzero" fill="rgba(0, 0, 0, 1)" stroke="none" transform="matrix(1 0 0 1 81 1112 )" class="fill" />
    <path d="M 12.219460227272727 29.147919010123736  C 12.837357954545455 28.80483689538808  13.146306818181818 28.509561304836897  13.146306818181818 28.26209223847019  C 13.146306818181818 28.13835770528684  13.053977272727273 27.812148481439817  12.869318181818182 27.283464566929133  C 12.684659090909092 26.75478065241845  12.464488636363637 26.152980877390327  12.208806818181818 25.478065241844767  C 11.953125 24.80314960629921  11.811079545454547 24.41507311586052  11.782670454545455 24.313835770528684  C 11.76846590909091 24.268841394825643  11.732954545454547 24.119797525309334  11.676136363636363 23.86670416197975  C 11.619318181818182 23.613610798650168  11.558948863636363 23.4111361079865  11.49502840909091 23.259280089988753  C 11.431107954545455 23.107424071991  11.335227272727273 22.98650168728909  11.207386363636363 22.896512935883013  C 10.994318181818182 22.739032620922387  10.632102272727273 22.66029246344207  10.120738636363637 22.66029246344207  C 9.794034090909092 22.66029246344207  9.296875000000002 22.691226096737907  8.629261363636363 22.753093363329583  C 7.961647727272727 22.814960629921263  7.457386363636363 22.845894263217097  7.1164772727272725 22.845894263217097  C 6.633522727272728 22.845894263217097  6.299715909090909 22.78402699662542  6.115056818181818 22.66029246344207  C 6.029829545454545 22.604049493813278  5.951704545454547 22.51687289088864  5.880681818181818 22.398762654668165  C 5.809659090909091 22.280652418447694  5.756392045454546 22.1681664791901  5.720880681818182 22.06130483689539  C 5.685369318181819 21.954443194600675  5.639204545454546 21.819460067491566  5.582386363636363 21.656355455568054  C 5.5255681818181825 21.493250843644542  5.490056818181818 21.38920134983127  5.4758522727272725 21.344206974128234  C 4.950284090909091 19.904386951631043  4.6875 18.470191226096734  4.6875 17.04161979752531  C 4.6875 15.613048368953882  4.950284090909091 14.178852643419573  5.4758522727272725 12.739032620922385  C 5.490056818181818 12.694038245219346  5.5255681818181825 12.589988751406073  5.582386363636363 12.426884139482564  C 5.639204545454546 12.263779527559054  5.685369318181819 12.128796400449943  5.720880681818182 12.021934758155231  C 5.756392045454546 11.915073115860515  5.809659090909091 11.802587176602925  5.880681818181818 11.684476940382453  C 5.951704545454547 11.56636670416198  6.029829545454545 11.479190101237343  6.115056818181818 11.422947131608549  C 6.299715909090909 11.299212598425196  6.633522727272728 11.23734533183352  7.1164772727272725 11.23734533183352  C 7.457386363636363 11.23734533183352  7.961647727272727 11.268278965129358  8.629261363636363 11.330146231721033  C 9.296875000000002 11.392013498312709  9.794034090909092 11.422947131608549  10.120738636363637 11.422947131608549  C 10.632102272727273 11.422947131608549  10.994318181818182 11.344206974128232  11.207386363636363 11.186726659167604  C 11.335227272727273 11.096737907761527  11.431107954545455 10.975815523059616  11.49502840909091 10.823959505061868  C 11.558948863636363 10.672103487064119  11.619318181818182 10.469628796400452  11.676136363636363 10.216535433070865  C 11.732954545454547 9.963442069741282  11.76846590909091 9.814398200224968  11.782670454545455 9.769403824521936  C 11.811079545454547 9.668166479190102  11.953125 9.280089988751408  12.208806818181818 8.605174353205848  C 12.464488636363637 7.9302587176602914  12.684659090909092 7.32845894263217  12.869318181818182 6.799775028121484  C 13.053977272727273 6.271091113610795  13.146306818181818 5.944881889763777  13.146306818181818 5.821147356580426  C 13.146306818181818 5.573678290213722  12.837357954545455 5.278402699662541  12.219460227272727 4.935320584926885  C 11.6015625 4.592238470191225  11.06534090909091 4.353205849268841  10.610795454545455 4.21822272215973  C 10.326704545454547 4.128233970753653  10.007102272727272 4.083239595050619  9.651988636363637 4.083239595050619  C 9.169034090909092 4.083239595050619  8.473011363636365 4.184476940382453  7.563920454545455 4.386951631046117  C 6.754261363636363 4.578177727784025  6.068892045454547 4.805961754780652  5.5078125 5.0703037120359955  C 4.946732954545455 5.334645669291334  4.442471590909092 5.705849268841393  3.995028409090909 6.183914510686163  C 3.5475852272727275 6.6619797525309306  3.220880681818182 7.055680539932506  3.0149147727272725 7.365016872890889  C 2.8089488636363638 7.674353205849269  2.485795454545455 8.205849268841394  2.0454545454545454 8.959505061867269  C 1.9602272727272727 9.094488188976378  1.8963068181818183 9.201349831271092  1.8536931818181819 9.280089988751408  C 1.1576704545454546 10.483689538807647  0.6747159090909092 11.698537682789649  0.40482954545454547 12.924634420697412  C 0.1349431818181818 14.150731158605174  0 15.523059617547808  0 17.04161979752531  C 0 18.560179977502813  0.1349431818181818 19.932508436445442  0.40482954545454547 21.158605174353205  C 0.6747159090909092 22.384701912260965  1.1576704545454546 23.599550056242972  1.8536931818181819 24.80314960629921  C 2.6491477272727275 26.17547806524184  3.2386363636363638 27.080989876265466  3.622159090909091 27.51968503937008  C 4.517045454545455 28.543307086614174  5.788352272727273 29.257592800899886  7.436079545454545 29.66254218222722  L 7.563920454545455 29.696287964004497  C 8.473011363636365 29.898762654668165  9.169034090909092 30  9.651988636363637 30  C 10.007102272727272 30  10.326704545454547 29.955005624296962  10.610795454545455 29.86501687289089  C 11.06534090909091 29.73003374578178  11.6015625 29.49100112485939  12.219460227272727 29.147919010123736  Z " stroke-width="0" stroke-dasharray="0" stroke="rgba(255, 255, 255, 0)" fill="none" transform="matrix(1 0 0 1 81 1112 )" class="stroke" mask="url(#Clip17)" />
    <path d="M 17.492897727272727 12.536557930258718  C 17.194602272727273 12.750281214848142  16.875 12.857142857142858  16.53409090909091 12.857142857142858  C 16.16477272727273 12.857142857142858  15.845170454545455 12.750281214848142  15.57528409090909 12.536557930258718  C 15.30539772727273 12.32283464566929  15.170454545454547 12.066929133858265  15.170454545454547 11.768841394825646  C 15.170454545454547 11.470753655793025  15.30539772727273 11.214848143982  15.57528409090909 11.001124859392576  C 16.10085227272727 10.584926884139481  16.363636363636363 10.078740157480315  16.363636363636363 9.482564679415072  C 16.363636363636363 8.897637795275589  16.10085227272727 8.38582677165354  15.57528409090909 7.947131608548933  C 15.30539772727273 7.733408323959505  15.170454545454547 7.480314960629919  15.170454545454547 7.187851518560181  C 15.170454545454547 6.895388076490436  15.30539772727273 6.642294713160854  15.57528409090909 6.428571428571429  C 15.845170454545455 6.214848143982001  16.16477272727273 6.107986501687289  16.53409090909091 6.107986501687289  C 16.903409090909093 6.107986501687289  17.223011363636363 6.214848143982001  17.492897727272727 6.428571428571429  C 18.558238636363637 7.272215973003373  19.09090909090909 8.29021372328459  19.09090909090909 9.482564679415072  C 19.09090909090909 10.674915635545554  18.558238636363637 11.69291338582677  17.492897727272727 12.536557930258718  Z " stroke-width="0" stroke-dasharray="0" stroke="rgba(255, 255, 255, 0)" fill="none" transform="matrix(1 0 0 1 81 1112 )" class="stroke" mask="url(#Clip17)" />
    <path d="M 21.34943181818182 15.590551181102361  C 21.093750000000004 15.804274465691785  20.774147727272727 15.9111361079865  20.390625 15.9111361079865  C 20.007102272727273 15.9111361079865  19.687500000000004 15.804274465691785  19.43181818181818 15.590551181102361  C 19.16193181818182 15.376827896512937  19.026988636363637 15.12373453318335  19.026988636363637 14.83127109111361  C 19.026988636363637 14.538807649043868  19.16193181818182 14.285714285714285  19.43181818181818 14.07199100112486  C 21.022727272727273 12.789651293588301  21.81818181818182 11.259842519685037  21.81818181818182 9.482564679415072  C 21.81818181818182 7.705286839145104  21.022727272727273 6.175478065241846  19.43181818181818 4.893138357705286  C 19.16193181818182 4.679415073115859  19.026988636363637 4.426321709786276  19.026988636363637 4.133858267716535  C 19.026988636363637 3.8413948256467902  19.16193181818182 3.588301462317207  19.43181818181818 3.374578177727783  C 19.701704545454547 3.160854893138355  20.02130681818182 3.053993250843643  20.390625 3.053993250843643  C 20.759943181818183 3.053993250843643  21.079545454545453 3.160854893138355  21.34943181818182 3.374578177727783  C 23.480113636363637 5.061867266591678  24.545454545454547 7.097862767154104  24.545454545454547 9.482564679415072  C 24.545454545454547 11.86726659167604  23.480113636363637 13.903262092238469  21.34943181818182 15.590551181102361  Z " stroke-width="0" stroke-dasharray="0" stroke="rgba(255, 255, 255, 0)" fill="none" transform="matrix(1 0 0 1 81 1112 )" class="stroke" mask="url(#Clip17)" />
    <path d="M 25.20596590909091 18.644544431946006  C 24.95028409090909 18.85826771653543  24.63068181818182 18.965129358830144  24.24715909090909 18.965129358830144  C 23.863636363636363 18.965129358830144  23.54403409090909 18.85826771653543  23.288352272727273 18.644544431946006  C 23.018465909090914 18.43082114735658  22.883522727272727 18.17772778402699  22.883522727272727 17.885264341957257  C 22.883522727272727 17.592800899887514  23.018465909090914 17.33970753655793  23.288352272727273 17.125984251968504  C 24.566761363636363 16.102362204724407  25.550426136363637 14.932508436445444  26.23934659090909 13.61642294713161  C 26.928267045454547 12.300337457817774  27.272727272727273 10.922384701912259  27.272727272727273 9.482564679415072  C 27.272727272727273 8.042744656917883  26.928267045454547 6.664791901012373  26.23934659090909 5.348706411698537  C 25.550426136363637 4.032620922384701  24.566761363636363 2.862767154105735  23.288352272727273 1.8391451068616438  C 23.018465909090914 1.625421822272216  22.883522727272727 1.37232845894263  22.883522727272727 1.0798650168728918  C 22.883522727272727 0.7874015748031471  23.018465909090914 0.5343082114735642  23.288352272727273 0.32058492688413986  C 23.558238636363637 0.10686164229471218  23.87784090909091 0  24.24715909090909 0  C 24.616477272727277 0  24.936079545454547 0.10686164229471218  25.20596590909091 0.32058492688413986  C 26.754261363636363 1.546681664791899  27.940340909090914 2.9471316085489274  28.764204545454547 4.521934758155232  C 29.588068181818183 6.096737907761529  30 7.750281214848144  30 9.482564679415072  C 30 11.214848143982  29.588068181818183 12.868391451068614  28.764204545454547 14.443194600674916  C 27.940340909090914 16.017997750281214  26.754261363636363 17.418447694038242  25.20596590909091 18.644544431946006  Z " stroke-width="0" stroke-dasharray="0" stroke="rgba(255, 255, 255, 0)" fill="none" transform="matrix(1 0 0 1 81 1112 )" class="stroke" mask="url(#Clip17)" />
  </g>
</svg>