<?xml version="1.0" encoding="utf-8"?>
<svg version="1.1" xmlns:xlink="http://www.w3.org/1999/xlink" width="55px" height="46px" xmlns="http://www.w3.org/2000/svg">
  <defs>
    <pattern id="BGPattern" patternUnits="userSpaceOnUse" alignment="0 0" imageRepeat="None" />
    <mask fill="white" id="Clip14">
      <path d="M 34.56705729166667 21.185937499999998  C 34.855685763888886 21.44322916666667  35 21.74791666666667  35 22.099999999999998  L 35 24.7  C 35 25.052083333333332  34.855685763888886 25.356770833333332  34.56705729166667 25.6140625  C 34.27842881944445 25.87135416666667  33.93663194444445 26  33.54166666666667 26  L 1.4583333333333333 26  C 1.0633680555555556 26  0.7215711805555556 25.87135416666667  0.4329427083333333 25.6140625  C 0.1443142361111111 25.356770833333332  0 25.052083333333332  0 24.7  L 0 22.099999999999998  C 0 21.74791666666667  0.1443142361111111 21.44322916666667  0.4329427083333333 21.185937499999998  C 0.7215711805555556 20.928645833333334  1.0633680555555556 20.8  1.4583333333333333 20.8  L 33.54166666666667 20.8  C 33.93663194444445 20.8  34.27842881944445 20.928645833333334  34.56705729166667 21.185937499999998  Z M 34.56705729166667 10.7859375  C 34.855685763888886 11.043229166666665  35 11.347916666666665  35 11.7  L 35 14.3  C 35 14.652083333333332  34.855685763888886 14.956770833333332  34.56705729166667 15.2140625  C 34.27842881944445 15.471354166666664  33.93663194444445 15.6  33.54166666666667 15.6  L 1.4583333333333333 15.6  C 1.0633680555555556 15.6  0.7215711805555556 15.471354166666664  0.4329427083333333 15.2140625  C 0.1443142361111111 14.956770833333332  0 14.652083333333332  0 14.3  L 0 11.7  C 0 11.347916666666665  0.1443142361111111 11.043229166666665  0.4329427083333333 10.7859375  C 0.7215711805555556 10.528645833333336  1.0633680555555556 10.4  1.4583333333333333 10.4  L 33.54166666666667 10.4  C 33.93663194444445 10.4  34.27842881944445 10.528645833333336  34.56705729166667 10.7859375  Z M 34.56705729166667 0.38593750000000115  C 34.855685763888886 0.6432291666666647  35 0.9479166666666647  35 1.3000000000000012  L 35 3.9000000000000004  C 35 4.252083333333331  34.855685763888886 4.556770833333331  34.56705729166667 4.8140625  C 34.27842881944445 5.071354166666664  33.93663194444445 5.199999999999999  33.54166666666667 5.199999999999999  L 1.4583333333333333 5.199999999999999  C 1.0633680555555556 5.199999999999999  0.7215711805555556 5.071354166666664  0.4329427083333333 4.8140625  C 0.1443142361111111 4.556770833333331  0 4.252083333333331  0 3.9000000000000004  L 0 1.3000000000000012  C 0 0.9479166666666647  0.1443142361111111 0.6432291666666647  0.4329427083333333 0.38593750000000115  C 0.7215711805555556 0.1286458333333318  1.0633680555555556 0  1.4583333333333333 0  L 33.54166666666667 0  C 33.93663194444445 0  34.27842881944445 0.1286458333333318  34.56705729166667 0.38593750000000115  Z " fill-rule="evenodd" />
    </mask>
  </defs>
  <g transform="matrix(1 0 0 1 -18 -44 )">
    <path d="M 34.56705729166667 21.185937499999998  C 34.855685763888886 21.44322916666667  35 21.74791666666667  35 22.099999999999998  L 35 24.7  C 35 25.052083333333332  34.855685763888886 25.356770833333332  34.56705729166667 25.6140625  C 34.27842881944445 25.87135416666667  33.93663194444445 26  33.54166666666667 26  L 1.4583333333333333 26  C 1.0633680555555556 26  0.7215711805555556 25.87135416666667  0.4329427083333333 25.6140625  C 0.1443142361111111 25.356770833333332  0 25.052083333333332  0 24.7  L 0 22.099999999999998  C 0 21.74791666666667  0.1443142361111111 21.44322916666667  0.4329427083333333 21.185937499999998  C 0.7215711805555556 20.928645833333334  1.0633680555555556 20.8  1.4583333333333333 20.8  L 33.54166666666667 20.8  C 33.93663194444445 20.8  34.27842881944445 20.928645833333334  34.56705729166667 21.185937499999998  Z M 34.56705729166667 10.7859375  C 34.855685763888886 11.043229166666665  35 11.347916666666665  35 11.7  L 35 14.3  C 35 14.652083333333332  34.855685763888886 14.956770833333332  34.56705729166667 15.2140625  C 34.27842881944445 15.471354166666664  33.93663194444445 15.6  33.54166666666667 15.6  L 1.4583333333333333 15.6  C 1.0633680555555556 15.6  0.7215711805555556 15.471354166666664  0.4329427083333333 15.2140625  C 0.1443142361111111 14.956770833333332  0 14.652083333333332  0 14.3  L 0 11.7  C 0 11.347916666666665  0.1443142361111111 11.043229166666665  0.4329427083333333 10.7859375  C 0.7215711805555556 10.528645833333336  1.0633680555555556 10.4  1.4583333333333333 10.4  L 33.54166666666667 10.4  C 33.93663194444445 10.4  34.27842881944445 10.528645833333336  34.56705729166667 10.7859375  Z M 34.56705729166667 0.38593750000000115  C 34.855685763888886 0.6432291666666647  35 0.9479166666666647  35 1.3000000000000012  L 35 3.9000000000000004  C 35 4.252083333333331  34.855685763888886 4.556770833333331  34.56705729166667 4.8140625  C 34.27842881944445 5.071354166666664  33.93663194444445 5.199999999999999  33.54166666666667 5.199999999999999  L 1.4583333333333333 5.199999999999999  C 1.0633680555555556 5.199999999999999  0.7215711805555556 5.071354166666664  0.4329427083333333 4.8140625  C 0.1443142361111111 4.556770833333331  0 4.252083333333331  0 3.9000000000000004  L 0 1.3000000000000012  C 0 0.9479166666666647  0.1443142361111111 0.6432291666666647  0.4329427083333333 0.38593750000000115  C 0.7215711805555556 0.1286458333333318  1.0633680555555556 0  1.4583333333333333 0  L 33.54166666666667 0  C 33.93663194444445 0  34.27842881944445 0.1286458333333318  34.56705729166667 0.38593750000000115  Z " fill-rule="nonzero" fill="rgba(0, 0, 0, 1)" stroke="none" transform="matrix(1 0 0 1 28 54 )" class="fill" />
    <path d="M 34.56705729166667 21.185937499999998  C 34.855685763888886 21.44322916666667  35 21.74791666666667  35 22.099999999999998  L 35 24.7  C 35 25.052083333333332  34.855685763888886 25.356770833333332  34.56705729166667 25.6140625  C 34.27842881944445 25.87135416666667  33.93663194444445 26  33.54166666666667 26  L 1.4583333333333333 26  C 1.0633680555555556 26  0.7215711805555556 25.87135416666667  0.4329427083333333 25.6140625  C 0.1443142361111111 25.356770833333332  0 25.052083333333332  0 24.7  L 0 22.099999999999998  C 0 21.74791666666667  0.1443142361111111 21.44322916666667  0.4329427083333333 21.185937499999998  C 0.7215711805555556 20.928645833333334  1.0633680555555556 20.8  1.4583333333333333 20.8  L 33.54166666666667 20.8  C 33.93663194444445 20.8  34.27842881944445 20.928645833333334  34.56705729166667 21.185937499999998  Z " stroke-width="0" stroke-dasharray="0" stroke="rgba(255, 255, 255, 0)" fill="none" transform="matrix(1 0 0 1 28 54 )" class="stroke" mask="url(#Clip14)" />
    <path d="M 34.56705729166667 10.7859375  C 34.855685763888886 11.043229166666665  35 11.347916666666665  35 11.7  L 35 14.3  C 35 14.652083333333332  34.855685763888886 14.956770833333332  34.56705729166667 15.2140625  C 34.27842881944445 15.471354166666664  33.93663194444445 15.6  33.54166666666667 15.6  L 1.4583333333333333 15.6  C 1.0633680555555556 15.6  0.7215711805555556 15.471354166666664  0.4329427083333333 15.2140625  C 0.1443142361111111 14.956770833333332  0 14.652083333333332  0 14.3  L 0 11.7  C 0 11.347916666666665  0.1443142361111111 11.043229166666665  0.4329427083333333 10.7859375  C 0.7215711805555556 10.528645833333336  1.0633680555555556 10.4  1.4583333333333333 10.4  L 33.54166666666667 10.4  C 33.93663194444445 10.4  34.27842881944445 10.528645833333336  34.56705729166667 10.7859375  Z " stroke-width="0" stroke-dasharray="0" stroke="rgba(255, 255, 255, 0)" fill="none" transform="matrix(1 0 0 1 28 54 )" class="stroke" mask="url(#Clip14)" />
    <path d="M 34.56705729166667 0.38593750000000115  C 34.855685763888886 0.6432291666666647  35 0.9479166666666647  35 1.3000000000000012  L 35 3.9000000000000004  C 35 4.252083333333331  34.855685763888886 4.556770833333331  34.56705729166667 4.8140625  C 34.27842881944445 5.071354166666664  33.93663194444445 5.199999999999999  33.54166666666667 5.199999999999999  L 1.4583333333333333 5.199999999999999  C 1.0633680555555556 5.199999999999999  0.7215711805555556 5.071354166666664  0.4329427083333333 4.8140625  C 0.1443142361111111 4.556770833333331  0 4.252083333333331  0 3.9000000000000004  L 0 1.3000000000000012  C 0 0.9479166666666647  0.1443142361111111 0.6432291666666647  0.4329427083333333 0.38593750000000115  C 0.7215711805555556 0.1286458333333318  1.0633680555555556 0  1.4583333333333333 0  L 33.54166666666667 0  C 33.93663194444445 0  34.27842881944445 0.1286458333333318  34.56705729166667 0.38593750000000115  Z " stroke-width="0" stroke-dasharray="0" stroke="rgba(255, 255, 255, 0)" fill="none" transform="matrix(1 0 0 1 28 54 )" class="stroke" mask="url(#Clip14)" />
  </g>
  <style>svg { filter: drop-shadow(0px 0px 5px rgba(0, 0, 0, 0.3137254901960784)); }</style>
</svg>