<?xml version="1.0" encoding="utf-8"?>
<svg version="1.1" xmlns:xlink="http://www.w3.org/1999/xlink" width="30px" height="30px" xmlns="http://www.w3.org/2000/svg">
  <defs>
    <pattern id="BGPattern" patternUnits="userSpaceOnUse" alignment="0 0" imageRepeat="None" />
    <mask fill="white" id="Clip19">
      <path d="M 18.125 21  L 19.98046875 16.5  L 26.15234375 16.5  C 26.139322916666668 16.453125  26.123046875 16.386718749999996  26.103515625 16.30078125  C 26.083984375 16.214843749999996  26.067708333333336 16.156249999999996  26.0546875 16.125  L 21.9140625 5  L 8.0859375 5  L 3.9453124999999996 16.125  C 3.932291666666668 16.171875  3.9160156250000004 16.23828125  3.896484375 16.32421875  C 3.8769531250000004 16.41015625  3.860677083333334 16.46875  3.8476562500000004 16.5  L 10.01953125 16.5  L 11.875 21  L 18.125 21  Z M 29.51171875 14.320312499999998  C 29.83723958333333 15.273437499999998  30 16.234375  30 17.203125  L 30 28.5  C 30 28.90625  29.876302083333332 29.2578125  29.62890625 29.5546875  C 29.38151041666667 29.8515625  29.08854166666667 30  28.75 30  L 1.25 30  C 0.9114583333333335 30  0.6184895833333334 29.8515625  0.37109375 29.5546875  C 0.12369791666666667 29.2578125  0 28.90625  0 28.5  L 0 17.203125  C 0 16.234375  0.16276041666666663 15.273437499999998  0.48828125000000006 14.320312499999998  L 5.13671875 1.3828125000000013  C 5.266927083333334 0.9921874999999969  5.504557291666668 0.6640624999999989  5.849609375 0.39843750000000067  C 6.194661458333334 0.13281249999999578  6.536458333333333 0  6.875 0  L 23.125 0  C 23.46354166666667 0  23.80533854166667 0.13281249999999578  24.150390625 0.39843750000000067  C 24.495442708333336 0.6640624999999989  24.733072916666668 0.9921874999999969  24.86328125 1.3828125000000013  L 29.51171875 14.320312499999998  Z " fill-rule="evenodd" />
    </mask>
  </defs>
  <g transform="matrix(1 0 0 1 -81 -1163 )">
    <path d="M 18.125 21  L 19.98046875 16.5  L 26.15234375 16.5  C 26.139322916666668 16.453125  26.123046875 16.386718749999996  26.103515625 16.30078125  C 26.083984375 16.214843749999996  26.067708333333336 16.156249999999996  26.0546875 16.125  L 21.9140625 5  L 8.0859375 5  L 3.9453124999999996 16.125  C 3.932291666666668 16.171875  3.9160156250000004 16.23828125  3.896484375 16.32421875  C 3.8769531250000004 16.41015625  3.860677083333334 16.46875  3.8476562500000004 16.5  L 10.01953125 16.5  L 11.875 21  L 18.125 21  Z M 29.51171875 14.320312499999998  C 29.83723958333333 15.273437499999998  30 16.234375  30 17.203125  L 30 28.5  C 30 28.90625  29.876302083333332 29.2578125  29.62890625 29.5546875  C 29.38151041666667 29.8515625  29.08854166666667 30  28.75 30  L 1.25 30  C 0.9114583333333335 30  0.6184895833333334 29.8515625  0.37109375 29.5546875  C 0.12369791666666667 29.2578125  0 28.90625  0 28.5  L 0 17.203125  C 0 16.234375  0.16276041666666663 15.273437499999998  0.48828125000000006 14.320312499999998  L 5.13671875 1.3828125000000013  C 5.266927083333334 0.9921874999999969  5.504557291666668 0.6640624999999989  5.849609375 0.39843750000000067  C 6.194661458333334 0.13281249999999578  6.536458333333333 0  6.875 0  L 23.125 0  C 23.46354166666667 0  23.80533854166667 0.13281249999999578  24.150390625 0.39843750000000067  C 24.495442708333336 0.6640624999999989  24.733072916666668 0.9921874999999969  24.86328125 1.3828125000000013  L 29.51171875 14.320312499999998  Z " fill-rule="nonzero" fill="rgba(0, 0, 0, 1)" stroke="none" transform="matrix(1 0 0 1 81 1163 )" class="fill" />
    <path d="M 18.125 21  L 19.98046875 16.5  L 26.15234375 16.5  C 26.139322916666668 16.453125  26.123046875 16.386718749999996  26.103515625 16.30078125  C 26.083984375 16.214843749999996  26.067708333333336 16.156249999999996  26.0546875 16.125  L 21.9140625 5  L 8.0859375 5  L 3.9453124999999996 16.125  C 3.932291666666668 16.171875  3.9160156250000004 16.23828125  3.896484375 16.32421875  C 3.8769531250000004 16.41015625  3.860677083333334 16.46875  3.8476562500000004 16.5  L 10.01953125 16.5  L 11.875 21  L 18.125 21  Z " stroke-width="0" stroke-dasharray="0" stroke="rgba(255, 255, 255, 0)" fill="none" transform="matrix(1 0 0 1 81 1163 )" class="stroke" mask="url(#Clip19)" />
    <path d="M 29.51171875 14.320312499999998  C 29.83723958333333 15.273437499999998  30 16.234375  30 17.203125  L 30 28.5  C 30 28.90625  29.876302083333332 29.2578125  29.62890625 29.5546875  C 29.38151041666667 29.8515625  29.08854166666667 30  28.75 30  L 1.25 30  C 0.9114583333333335 30  0.6184895833333334 29.8515625  0.37109375 29.5546875  C 0.12369791666666667 29.2578125  0 28.90625  0 28.5  L 0 17.203125  C 0 16.234375  0.16276041666666663 15.273437499999998  0.48828125000000006 14.320312499999998  L 5.13671875 1.3828125000000013  C 5.266927083333334 0.9921874999999969  5.504557291666668 0.6640624999999989  5.849609375 0.39843750000000067  C 6.194661458333334 0.13281249999999578  6.536458333333333 0  6.875 0  L 23.125 0  C 23.46354166666667 0  23.80533854166667 0.13281249999999578  24.150390625 0.39843750000000067  C 24.495442708333336 0.6640624999999989  24.733072916666668 0.9921874999999969  24.86328125 1.3828125000000013  L 29.51171875 14.320312499999998  Z " stroke-width="0" stroke-dasharray="0" stroke="rgba(255, 255, 255, 0)" fill="none" transform="matrix(1 0 0 1 81 1163 )" class="stroke" mask="url(#Clip19)" />
  </g>
</svg>