<?xml version="1.0" encoding="utf-8"?>
<svg version="1.1" xmlns:xlink="http://www.w3.org/1999/xlink" width="176px" height="138px" xmlns="http://www.w3.org/2000/svg">
  <defs>
    <pattern id="BGPattern" patternUnits="userSpaceOnUse" alignment="0 0" imageRepeat="None" />
    <mask fill="white" id="Clip25">
      <path d="M 84.8203125 99.68164062500001  C 86.94010416666667 97.13606770833331  88 93.94661458333333  88 90.11328125000001  C 88 86.27994791666666  87.7421875 82.76106770833333  87.2265625 79.55664062499999  C 86.7109375 76.35221354166664  85.86588541666667 73.26757812500001  84.69140625 70.30273437500001  C 83.51692708333334 67.337890625  81.78385416666667 65.001953125  79.4921875 63.29492187499999  C 77.20052083333334 61.587890625  74.42187500000001 60.73437499999999  71.15625 60.73437499999999  C 70.81250000000001 60.973958333333336  69.95312500000001 61.513020833333336  68.578125 62.35156249999999  C 67.20312500000001 63.19010416666666  66.12890625000001 63.83398437499999  65.35546875 64.283203125  C 64.58203125 64.732421875  63.56510416666667 65.25651041666666  62.3046875 65.85546875  C 61.044270833333336 66.45442708333333  59.8125 66.888671875  58.609375 67.158203125  C 57.40625 67.427734375  56.203125 67.5625  55 67.5625  C 53.796875 67.5625  52.59375 67.427734375  51.390625 67.158203125  C 50.1875 66.888671875  48.95572916666667 66.45442708333333  47.6953125 65.85546875  C 46.434895833333336 65.25651041666666  45.41796875 64.732421875  44.64453125 64.283203125  C 43.87109375 63.83398437499999  42.796875 63.19010416666666  41.421875 62.35156249999999  C 40.046875 61.513020833333336  39.1875 60.973958333333336  38.84375 60.73437499999999  C 35.578125 60.73437499999999  32.79947916666667 61.587890625  30.5078125 63.29492187499999  C 28.216145833333336 65.001953125  26.483072916666668 67.337890625  25.30859375 70.30273437500001  C 24.134114583333336 73.26757812500001  23.2890625 76.35221354166664  22.7734375 79.55664062499999  C 22.2578125 82.76106770833333  22 86.27994791666666  22 90.11328125000001  C 22 93.94661458333333  23.059895833333336 97.13606770833331  25.1796875 99.68164062500001  C 27.299479166666668 102.22721354166664  29.90625 103.5  33 103  L 77 103  C 80.09375 103.5  82.70052083333334 102.22721354166664  84.8203125 99.68164062500001  Z M 68.79296875 57.814453125  C 72.60286458333334 53.83138020833332  74.50781250000001 49.02473958333332  74.5078125 43.39453125  C 74.50781250000001 37.76432291666666  72.60286458333334 32.957682291666664  68.79296875 28.974609375  C 64.98307291666667 24.99153645833332  60.38541666666667 22.999999999999996  55 22.999999999999996  C 49.614583333333336 22.999999999999996  45.016927083333336 24.99153645833332  41.20703125 28.974609375  C 37.39713541666667 32.957682291666664  35.4921875 37.76432291666666  35.4921875 43.39453125  C 35.4921875 49.02473958333332  37.39713541666667 53.83138020833332  41.20703125 57.814453125  C 45.016927083333336 61.797526041666664  49.614583333333336 63.78906250000001  55 63.78906250000001  C 60.38541666666667 63.78906250000001  64.98307291666667 61.797526041666664  68.79296875 57.814453125  Z M 153.2265625 91.19140625000001  C 153.7421875 90.65234375000001  154 89.96354166666664  154 89.12499999999999  L 154 83.37500000000001  C 154 82.53645833333331  153.7421875 81.84765624999999  153.2265625 81.30859374999999  C 152.7109375 80.76953124999999  152.05208333333334 80.49999999999999  151.25 80  L 101.75 80  C 100.94791666666667 80.49999999999999  100.2890625 80.76953124999999  99.7734375 81.30859374999999  C 99.2578125 81.84765624999999  99 82.53645833333331  99 83.37500000000001  L 99 89.12499999999999  C 99 89.96354166666664  99.2578125 90.65234375000001  99.7734375 91.19140625000001  C 100.2890625 91.73046875000001  100.94791666666667 92.00000000000001  101.75 92  L 151.25 92  C 152.05208333333334 92.00000000000001  152.7109375 91.73046875000001  153.2265625 91.19140625000001  Z M 153.09765625 68.056640625  C 153.69921875 67.427734375  154 66.6640625  154 65.765625  L 154 60.73437499999999  C 154 59.8359375  153.69921875 59.07226562500001  153.09765625 58.44335937499999  C 152.49609375 57.814453125  151.765625 57.49999999999999  150.90625 58  L 102.09375 58  C 101.234375 57.49999999999999  100.50390625 57.814453125  99.90234375 58.44335937499999  C 99.30078125 59.07226562500001  99 59.8359375  99 60.73437499999999  L 99 65.765625  C 99 66.6640625  99.30078125 67.427734375  99.90234375 68.056640625  C 100.50390625 68.685546875  101.234375 69  102.09375 69  L 150.90625 69  C 151.765625 69  152.49609375 68.685546875  153.09765625 68.056640625  Z M 153.2265625 45.19140625000001  C 153.7421875 44.65234375000001  154 43.96354166666666  154 43.125  L 154 37.37500000000001  C 154 36.536458333333314  153.7421875 35.84765625  153.2265625 35.30859375  C 152.7109375 34.76953125  152.05208333333334 34.5  151.25 35  L 101.75 35  C 100.94791666666667 34.5  100.2890625 34.76953125  99.7734375 35.30859375  C 99.2578125 35.84765625  99 36.536458333333314  99 37.37500000000001  L 99 43.125  C 99 43.96354166666666  99.2578125 44.65234375000001  99.7734375 45.19140625000001  C 100.2890625 45.73046875000001  100.94791666666667 46.00000000000001  101.75 46  L 151.25 46  C 152.05208333333334 46.00000000000001  152.7109375 45.73046875000001  153.2265625 45.19140625000001  Z M 171.9609375 4.222656250000005  C 174.65364583333334 7.03776041666666  176 10.421875000000005  176 14.374999999999995  L 176 123.625  C 176 127.578125  174.65364583333334 130.96223958333334  171.9609375 133.77734375  C 169.26822916666669 136.59244791666666  166.03125 138  162.25 138  L 132 138  L 132 129.375  C 132 128.53645833333334  131.7421875 127.84765625  131.2265625 127.30859375  C 130.7109375 126.76953125  130.05208333333334 126.5  129.25 126.5  L 123.75 126.5  C 122.94791666666667 126.5  122.2890625 126.76953125  121.7734375 127.30859375  C 121.2578125 127.84765625  121 128.53645833333334  121 129.375  L 121 138  L 55 138  L 55 129.375  C 55 128.53645833333334  54.7421875 127.84765625  54.2265625 127.30859375  C 53.7109375 126.76953125  53.052083333333336 126.5  52.25 126.5  L 46.75 126.5  C 45.94791666666667 126.5  45.2890625 126.76953125  44.7734375 127.30859375  C 44.2578125 127.84765625  44 128.53645833333334  44 129.375  L 44 138  L 13.75 138  C 9.96875 138  6.731770833333334 136.59244791666666  4.0390625 133.77734375  C 1.3463541666666665 130.96223958333334  0 127.578125  0 123.625  L 0 14.374999999999995  C 0 10.421875000000005  1.3463541666666665 7.03776041666666  4.0390625 4.222656250000005  C 6.731770833333334 1.4075520833333197  9.96875 0  13.75 0  L 162.25 0  C 166.03125 0  169.26822916666669 1.4075520833333197  171.9609375 4.222656250000005  Z " fill-rule="evenodd" />
    </mask>
  </defs>
  <g transform="matrix(1 0 0 1 -28 -166 )">
    <path d="M 84.8203125 99.68164062500001  C 86.94010416666667 97.13606770833331  88 93.94661458333333  88 90.11328125000001  C 88 86.27994791666666  87.7421875 82.76106770833333  87.2265625 79.55664062499999  C 86.7109375 76.35221354166664  85.86588541666667 73.26757812500001  84.69140625 70.30273437500001  C 83.51692708333334 67.337890625  81.78385416666667 65.001953125  79.4921875 63.29492187499999  C 77.20052083333334 61.587890625  74.42187500000001 60.73437499999999  71.15625 60.73437499999999  C 70.81250000000001 60.973958333333336  69.95312500000001 61.513020833333336  68.578125 62.35156249999999  C 67.20312500000001 63.19010416666666  66.12890625000001 63.83398437499999  65.35546875 64.283203125  C 64.58203125 64.732421875  63.56510416666667 65.25651041666666  62.3046875 65.85546875  C 61.044270833333336 66.45442708333333  59.8125 66.888671875  58.609375 67.158203125  C 57.40625 67.427734375  56.203125 67.5625  55 67.5625  C 53.796875 67.5625  52.59375 67.427734375  51.390625 67.158203125  C 50.1875 66.888671875  48.95572916666667 66.45442708333333  47.6953125 65.85546875  C 46.434895833333336 65.25651041666666  45.41796875 64.732421875  44.64453125 64.283203125  C 43.87109375 63.83398437499999  42.796875 63.19010416666666  41.421875 62.35156249999999  C 40.046875 61.513020833333336  39.1875 60.973958333333336  38.84375 60.73437499999999  C 35.578125 60.73437499999999  32.79947916666667 61.587890625  30.5078125 63.29492187499999  C 28.216145833333336 65.001953125  26.483072916666668 67.337890625  25.30859375 70.30273437500001  C 24.134114583333336 73.26757812500001  23.2890625 76.35221354166664  22.7734375 79.55664062499999  C 22.2578125 82.76106770833333  22 86.27994791666666  22 90.11328125000001  C 22 93.94661458333333  23.059895833333336 97.13606770833331  25.1796875 99.68164062500001  C 27.299479166666668 102.22721354166664  29.90625 103.5  33 103  L 77 103  C 80.09375 103.5  82.70052083333334 102.22721354166664  84.8203125 99.68164062500001  Z M 68.79296875 57.814453125  C 72.60286458333334 53.83138020833332  74.50781250000001 49.02473958333332  74.5078125 43.39453125  C 74.50781250000001 37.76432291666666  72.60286458333334 32.957682291666664  68.79296875 28.974609375  C 64.98307291666667 24.99153645833332  60.38541666666667 22.999999999999996  55 22.999999999999996  C 49.614583333333336 22.999999999999996  45.016927083333336 24.99153645833332  41.20703125 28.974609375  C 37.39713541666667 32.957682291666664  35.4921875 37.76432291666666  35.4921875 43.39453125  C 35.4921875 49.02473958333332  37.39713541666667 53.83138020833332  41.20703125 57.814453125  C 45.016927083333336 61.797526041666664  49.614583333333336 63.78906250000001  55 63.78906250000001  C 60.38541666666667 63.78906250000001  64.98307291666667 61.797526041666664  68.79296875 57.814453125  Z M 153.2265625 91.19140625000001  C 153.7421875 90.65234375000001  154 89.96354166666664  154 89.12499999999999  L 154 83.37500000000001  C 154 82.53645833333331  153.7421875 81.84765624999999  153.2265625 81.30859374999999  C 152.7109375 80.76953124999999  152.05208333333334 80.49999999999999  151.25 80  L 101.75 80  C 100.94791666666667 80.49999999999999  100.2890625 80.76953124999999  99.7734375 81.30859374999999  C 99.2578125 81.84765624999999  99 82.53645833333331  99 83.37500000000001  L 99 89.12499999999999  C 99 89.96354166666664  99.2578125 90.65234375000001  99.7734375 91.19140625000001  C 100.2890625 91.73046875000001  100.94791666666667 92.00000000000001  101.75 92  L 151.25 92  C 152.05208333333334 92.00000000000001  152.7109375 91.73046875000001  153.2265625 91.19140625000001  Z M 153.09765625 68.056640625  C 153.69921875 67.427734375  154 66.6640625  154 65.765625  L 154 60.73437499999999  C 154 59.8359375  153.69921875 59.07226562500001  153.09765625 58.44335937499999  C 152.49609375 57.814453125  151.765625 57.49999999999999  150.90625 58  L 102.09375 58  C 101.234375 57.49999999999999  100.50390625 57.814453125  99.90234375 58.44335937499999  C 99.30078125 59.07226562500001  99 59.8359375  99 60.73437499999999  L 99 65.765625  C 99 66.6640625  99.30078125 67.427734375  99.90234375 68.056640625  C 100.50390625 68.685546875  101.234375 69  102.09375 69  L 150.90625 69  C 151.765625 69  152.49609375 68.685546875  153.09765625 68.056640625  Z M 153.2265625 45.19140625000001  C 153.7421875 44.65234375000001  154 43.96354166666666  154 43.125  L 154 37.37500000000001  C 154 36.536458333333314  153.7421875 35.84765625  153.2265625 35.30859375  C 152.7109375 34.76953125  152.05208333333334 34.5  151.25 35  L 101.75 35  C 100.94791666666667 34.5  100.2890625 34.76953125  99.7734375 35.30859375  C 99.2578125 35.84765625  99 36.536458333333314  99 37.37500000000001  L 99 43.125  C 99 43.96354166666666  99.2578125 44.65234375000001  99.7734375 45.19140625000001  C 100.2890625 45.73046875000001  100.94791666666667 46.00000000000001  101.75 46  L 151.25 46  C 152.05208333333334 46.00000000000001  152.7109375 45.73046875000001  153.2265625 45.19140625000001  Z M 171.9609375 4.222656250000005  C 174.65364583333334 7.03776041666666  176 10.421875000000005  176 14.374999999999995  L 176 123.625  C 176 127.578125  174.65364583333334 130.96223958333334  171.9609375 133.77734375  C 169.26822916666669 136.59244791666666  166.03125 138  162.25 138  L 132 138  L 132 129.375  C 132 128.53645833333334  131.7421875 127.84765625  131.2265625 127.30859375  C 130.7109375 126.76953125  130.05208333333334 126.5  129.25 126.5  L 123.75 126.5  C 122.94791666666667 126.5  122.2890625 126.76953125  121.7734375 127.30859375  C 121.2578125 127.84765625  121 128.53645833333334  121 129.375  L 121 138  L 55 138  L 55 129.375  C 55 128.53645833333334  54.7421875 127.84765625  54.2265625 127.30859375  C 53.7109375 126.76953125  53.052083333333336 126.5  52.25 126.5  L 46.75 126.5  C 45.94791666666667 126.5  45.2890625 126.76953125  44.7734375 127.30859375  C 44.2578125 127.84765625  44 128.53645833333334  44 129.375  L 44 138  L 13.75 138  C 9.96875 138  6.731770833333334 136.59244791666666  4.0390625 133.77734375  C 1.3463541666666665 130.96223958333334  0 127.578125  0 123.625  L 0 14.374999999999995  C 0 10.421875000000005  1.3463541666666665 7.03776041666666  4.0390625 4.222656250000005  C 6.731770833333334 1.4075520833333197  9.96875 0  13.75 0  L 162.25 0  C 166.03125 0  169.26822916666669 1.4075520833333197  171.9609375 4.222656250000005  Z " fill-rule="nonzero" fill="rgba(0, 0, 0, 1)" stroke="none" transform="matrix(1 0 0 1 28 166 )" class="fill" />
    <path d="M 84.8203125 99.68164062500001  C 86.94010416666667 97.13606770833331  88 93.94661458333333  88 90.11328125000001  C 88 86.27994791666666  87.7421875 82.76106770833333  87.2265625 79.55664062499999  C 86.7109375 76.35221354166664  85.86588541666667 73.26757812500001  84.69140625 70.30273437500001  C 83.51692708333334 67.337890625  81.78385416666667 65.001953125  79.4921875 63.29492187499999  C 77.20052083333334 61.587890625  74.42187500000001 60.73437499999999  71.15625 60.73437499999999  C 70.81250000000001 60.973958333333336  69.95312500000001 61.513020833333336  68.578125 62.35156249999999  C 67.20312500000001 63.19010416666666  66.12890625000001 63.83398437499999  65.35546875 64.283203125  C 64.58203125 64.732421875  63.56510416666667 65.25651041666666  62.3046875 65.85546875  C 61.044270833333336 66.45442708333333  59.8125 66.888671875  58.609375 67.158203125  C 57.40625 67.427734375  56.203125 67.5625  55 67.5625  C 53.796875 67.5625  52.59375 67.427734375  51.390625 67.158203125  C 50.1875 66.888671875  48.95572916666667 66.45442708333333  47.6953125 65.85546875  C 46.434895833333336 65.25651041666666  45.41796875 64.732421875  44.64453125 64.283203125  C 43.87109375 63.83398437499999  42.796875 63.19010416666666  41.421875 62.35156249999999  C 40.046875 61.513020833333336  39.1875 60.973958333333336  38.84375 60.73437499999999  C 35.578125 60.73437499999999  32.79947916666667 61.587890625  30.5078125 63.29492187499999  C 28.216145833333336 65.001953125  26.483072916666668 67.337890625  25.30859375 70.30273437500001  C 24.134114583333336 73.26757812500001  23.2890625 76.35221354166664  22.7734375 79.55664062499999  C 22.2578125 82.76106770833333  22 86.27994791666666  22 90.11328125000001  C 22 93.94661458333333  23.059895833333336 97.13606770833331  25.1796875 99.68164062500001  C 27.299479166666668 102.22721354166664  29.90625 103.5  33 103  L 77 103  C 80.09375 103.5  82.70052083333334 102.22721354166664  84.8203125 99.68164062500001  Z " stroke-width="0" stroke-dasharray="0" stroke="rgba(255, 255, 255, 0)" fill="none" transform="matrix(1 0 0 1 28 166 )" class="stroke" mask="url(#Clip25)" />
    <path d="M 68.79296875 57.814453125  C 72.60286458333334 53.83138020833332  74.50781250000001 49.02473958333332  74.5078125 43.39453125  C 74.50781250000001 37.76432291666666  72.60286458333334 32.957682291666664  68.79296875 28.974609375  C 64.98307291666667 24.99153645833332  60.38541666666667 22.999999999999996  55 22.999999999999996  C 49.614583333333336 22.999999999999996  45.016927083333336 24.99153645833332  41.20703125 28.974609375  C 37.39713541666667 32.957682291666664  35.4921875 37.76432291666666  35.4921875 43.39453125  C 35.4921875 49.02473958333332  37.39713541666667 53.83138020833332  41.20703125 57.814453125  C 45.016927083333336 61.797526041666664  49.614583333333336 63.78906250000001  55 63.78906250000001  C 60.38541666666667 63.78906250000001  64.98307291666667 61.797526041666664  68.79296875 57.814453125  Z " stroke-width="0" stroke-dasharray="0" stroke="rgba(255, 255, 255, 0)" fill="none" transform="matrix(1 0 0 1 28 166 )" class="stroke" mask="url(#Clip25)" />
    <path d="M 153.2265625 91.19140625000001  C 153.7421875 90.65234375000001  154 89.96354166666664  154 89.12499999999999  L 154 83.37500000000001  C 154 82.53645833333331  153.7421875 81.84765624999999  153.2265625 81.30859374999999  C 152.7109375 80.76953124999999  152.05208333333334 80.49999999999999  151.25 80  L 101.75 80  C 100.94791666666667 80.49999999999999  100.2890625 80.76953124999999  99.7734375 81.30859374999999  C 99.2578125 81.84765624999999  99 82.53645833333331  99 83.37500000000001  L 99 89.12499999999999  C 99 89.96354166666664  99.2578125 90.65234375000001  99.7734375 91.19140625000001  C 100.2890625 91.73046875000001  100.94791666666667 92.00000000000001  101.75 92  L 151.25 92  C 152.05208333333334 92.00000000000001  152.7109375 91.73046875000001  153.2265625 91.19140625000001  Z " stroke-width="0" stroke-dasharray="0" stroke="rgba(255, 255, 255, 0)" fill="none" transform="matrix(1 0 0 1 28 166 )" class="stroke" mask="url(#Clip25)" />
    <path d="M 153.09765625 68.056640625  C 153.69921875 67.427734375  154 66.6640625  154 65.765625  L 154 60.73437499999999  C 154 59.8359375  153.69921875 59.07226562500001  153.09765625 58.44335937499999  C 152.49609375 57.814453125  151.765625 57.49999999999999  150.90625 58  L 102.09375 58  C 101.234375 57.49999999999999  100.50390625 57.814453125  99.90234375 58.44335937499999  C 99.30078125 59.07226562500001  99 59.8359375  99 60.73437499999999  L 99 65.765625  C 99 66.6640625  99.30078125 67.427734375  99.90234375 68.056640625  C 100.50390625 68.685546875  101.234375 69  102.09375 69  L 150.90625 69  C 151.765625 69  152.49609375 68.685546875  153.09765625 68.056640625  Z " stroke-width="0" stroke-dasharray="0" stroke="rgba(255, 255, 255, 0)" fill="none" transform="matrix(1 0 0 1 28 166 )" class="stroke" mask="url(#Clip25)" />
    <path d="M 153.2265625 45.19140625000001  C 153.7421875 44.65234375000001  154 43.96354166666666  154 43.125  L 154 37.37500000000001  C 154 36.536458333333314  153.7421875 35.84765625  153.2265625 35.30859375  C 152.7109375 34.76953125  152.05208333333334 34.5  151.25 35  L 101.75 35  C 100.94791666666667 34.5  100.2890625 34.76953125  99.7734375 35.30859375  C 99.2578125 35.84765625  99 36.536458333333314  99 37.37500000000001  L 99 43.125  C 99 43.96354166666666  99.2578125 44.65234375000001  99.7734375 45.19140625000001  C 100.2890625 45.73046875000001  100.94791666666667 46.00000000000001  101.75 46  L 151.25 46  C 152.05208333333334 46.00000000000001  152.7109375 45.73046875000001  153.2265625 45.19140625000001  Z " stroke-width="0" stroke-dasharray="0" stroke="rgba(255, 255, 255, 0)" fill="none" transform="matrix(1 0 0 1 28 166 )" class="stroke" mask="url(#Clip25)" />
    <path d="M 171.9609375 4.222656250000005  C 174.65364583333334 7.03776041666666  176 10.421875000000005  176 14.374999999999995  L 176 123.625  C 176 127.578125  174.65364583333334 130.96223958333334  171.9609375 133.77734375  C 169.26822916666669 136.59244791666666  166.03125 138  162.25 138  L 132 138  L 132 129.375  C 132 128.53645833333334  131.7421875 127.84765625  131.2265625 127.30859375  C 130.7109375 126.76953125  130.05208333333334 126.5  129.25 126.5  L 123.75 126.5  C 122.94791666666667 126.5  122.2890625 126.76953125  121.7734375 127.30859375  C 121.2578125 127.84765625  121 128.53645833333334  121 129.375  L 121 138  L 55 138  L 55 129.375  C 55 128.53645833333334  54.7421875 127.84765625  54.2265625 127.30859375  C 53.7109375 126.76953125  53.052083333333336 126.5  52.25 126.5  L 46.75 126.5  C 45.94791666666667 126.5  45.2890625 126.76953125  44.7734375 127.30859375  C 44.2578125 127.84765625  44 128.53645833333334  44 129.375  L 44 138  L 13.75 138  C 9.96875 138  6.731770833333334 136.59244791666666  4.0390625 133.77734375  C 1.3463541666666665 130.96223958333334  0 127.578125  0 123.625  L 0 14.374999999999995  C 0 10.421875000000005  1.3463541666666665 7.03776041666666  4.0390625 4.222656250000005  C 6.731770833333334 1.4075520833333197  9.96875 0  13.75 0  L 162.25 0  C 166.03125 0  169.26822916666669 1.4075520833333197  171.9609375 4.222656250000005  Z " stroke-width="0" stroke-dasharray="0" stroke="rgba(255, 255, 255, 0)" fill="none" transform="matrix(1 0 0 1 28 166 )" class="stroke" mask="url(#Clip25)" />
  </g>
</svg>