<?xml version="1.0" encoding="utf-8"?>
<svg version="1.1" xmlns:xlink="http://www.w3.org/1999/xlink" width="27px" height="27px" xmlns="http://www.w3.org/2000/svg">
  <defs>
    <pattern id="BGPattern" patternUnits="userSpaceOnUse" alignment="0 0" imageRepeat="None" />
    <mask fill="white" id="Clip23">
      <path d="M 27 7.815789473684214  C 27 3.4389473684210525  23.733000000000004 0  19.575 0  C 17.22599999999999 0  14.97149999999999 1.1510526315789456  13.5 2.9699999999999984  C 12.028500000000008 1.1510526315789456  9.774 0  7.425000000000001 0  C 3.266999999999996 0  0 3.4389473684210525  0 7.815789473684214  C 0 13.187368421052627  4.589999999999995 17.56421052631578  11.54249999999999 24.21473684210527  L 13.5 26.076315789473682  L 15.457500000000008 24.200526315789478  C 22.410000000000004 17.56421052631578  27 13.187368421052627  27 7.815789473684214  Z " fill-rule="evenodd" />
    </mask>
  </defs>
  <g transform="matrix(1 0 0 1 -1009 -785 )">
    <path d="M 27 7.815789473684214  C 27 3.4389473684210525  23.733000000000004 0  19.575 0  C 17.22599999999999 0  14.97149999999999 1.1510526315789456  13.5 2.9699999999999984  C 12.028500000000008 1.1510526315789456  9.774 0  7.425000000000001 0  C 3.266999999999996 0  0 3.4389473684210525  0 7.815789473684214  C 0 13.187368421052627  4.589999999999995 17.56421052631578  11.54249999999999 24.21473684210527  L 13.5 26.076315789473682  L 15.457500000000008 24.200526315789478  C 22.410000000000004 17.56421052631578  27 13.187368421052627  27 7.815789473684214  Z " fill-rule="nonzero" fill="rgba(255, 255, 255, 1)" stroke="none" transform="matrix(1 0 0 1 1009 785 )" class="fill" />
    <path d="M 27 7.815789473684214  C 27 3.4389473684210525  23.733000000000004 0  19.575 0  C 17.22599999999999 0  14.97149999999999 1.1510526315789456  13.5 2.9699999999999984  C 12.028500000000008 1.1510526315789456  9.774 0  7.425000000000001 0  C 3.266999999999996 0  0 3.4389473684210525  0 7.815789473684214  C 0 13.187368421052627  4.589999999999995 17.56421052631578  11.54249999999999 24.21473684210527  L 13.5 26.076315789473682  L 15.457500000000008 24.200526315789478  C 22.410000000000004 17.56421052631578  27 13.187368421052627  27 7.815789473684214  Z " stroke-width="2" stroke-dasharray="0" stroke="rgba(51, 51, 51, 1)" fill="none" transform="matrix(1 0 0 1 1009 785 )" class="stroke" mask="url(#Clip23)" />
  </g>
</svg>